<?xml version="1.0" standalone="no"?><!DOCTYPE svg PUBLIC "-//W3C//DTD SVG 1.1//EN" "http://www.w3.org/Graphics/SVG/1.1/DTD/svg11.dtd"><svg t="1630385338525" class="icon" viewBox="0 0 1024 1024" version="1.1" xmlns="http://www.w3.org/2000/svg" p-id="2505" xmlns:xlink="http://www.w3.org/1999/xlink" width="200" height="200"><defs><style type="text/css"></style></defs><path d="M502.225455 605.090909H119.389091v-186.181818h683.752727a347.229091 347.229091 0 0 0-9.309091 46.545454 34.909091 34.909091 0 0 0 69.818182 9.076364 292.538182 292.538182 0 0 1 20.712727-77.730909 10.007273 10.007273 0 0 1 0-1.163636 24.669091 24.669091 0 0 0 1.396364-4.421819 20.014545 20.014545 0 0 0 0-3.956363 25.367273 25.367273 0 0 0 0-4.189091 28.16 28.16 0 0 0 0-4.421818 23.272727 23.272727 0 0 0 0-3.956364 29.556364 29.556364 0 0 0-1.396364-4.189091 10.007273 10.007273 0 0 0 0-1.163636A294.632727 294.632727 0 0 1 884.363636 139.636364a34.909091 34.909091 0 0 0-32.116363-48.64H157.090909a107.52 107.52 0 0 0-107.52 106.589091v628.363636a107.52 107.52 0 0 0 107.287273 107.52h294.4a34.909091 34.909091 0 0 0 0-69.818182H156.858182a37.701818 37.701818 0 0 1-37.469091-37.701818V674.909091h382.836364a34.909091 34.909091 0 0 0 0-69.818182zM119.389091 197.585455a37.701818 37.701818 0 0 1 37.701818-37.701819h646.050909a354.676364 354.676364 0 0 0-12.334545 93.090909 355.141818 355.141818 0 0 0 12.334545 96.116364H119.389091z" p-id="2506"></path><path d="M955.345455 714.007273a29.323636 29.323636 0 0 0-27.694546-2.094546l-4.421818 2.094546v-93.090909a56.087273 56.087273 0 0 0-54.458182-57.250909h-186.181818a56.087273 56.087273 0 0 0-54.690909 57.250909v93.090909h-1.163637a29.090909 29.090909 0 0 0-41.192727 26.530909v129.396363a56.32 56.32 0 0 0 56.087273 56.32h270.894545a56.32 56.32 0 0 0 56.087273-56.32v-131.490909a29.323636 29.323636 0 0 0-13.265454-24.436363z m-270.196364-93.090909h179.898182v117.992727l-90.298182 40.029091-89.832727-40.494546z m225.28 244.596363H642.56v-81.454545L762.647273 837.818182a28.858182 28.858182 0 0 0 23.272727 0l123.810909-54.923637z" p-id="2507"></path></svg>